<?xml version="1.0" encoding="utf-8"?>
<svg version="1.1"  viewBox="0 0 245.014 50.75" xmlns="http://www.w3.org/2000/svg" fill="white">
  <polygon points="153.1,0.1 153.1,7.7 138.5,7.7 138.5,0.1 130.5,0.1 130.5,34.1 138.5,34.1 138.5,11.1 153.1,11.1 153.1,34.1 161.1,34.1 161.1,0.1"/>
  <polygon points="91,3 120.6,34.8 120.6,0.1 60.1,0.1 91,34.8"/>
  <polygon points="171.7,0.1 171.7,33.8 227.4,33.8 227.4,0.1 199.5,26.3"/>
  <rect x="236.7" y="-0.2" width="8.2" height="34"/>
  <g transform="matrix(1,0,0,1,-127.5,-224.8)">
    <path d="M 128 264.7 h 9.3 c 1.8 0 3.3 0.1 4.5 0.4 c 1.1 0.3 2.1 0.6 2.8 1.1 c 0.7 0.5 1.3 1.1 1.6 1.7 c 0.3 0.7 0.5 1.4 0.5 2.1 c 0 1.2 -0.2 2 -0.7 2.7 c -0.5 0.6 -1.2 1.2 -2.1 1.6 c -0.9 0.4 -1.8 0.7 -2.8 0.9 c -1.4 0.2 -2.6 0.3 -3.7 0.3 H 128 V 264.7 z M 134.3 267.1 v 5.9 h 1.5 c 1.3 0 2.2 -0.1 2.8 -0.2 c 0.6 -0.2 1 -0.4 1.3 -0.8 c 0.3 -0.4 0.5 -1 0.5 -1.9 c 0 -1.1 -0.3 -1.9 -1 -2.3 c -0.7 -0.4 -1.9 -0.6 -3.5 -0.6 H 134.3 z"/>
    <path d="M 149.2 270.1 c 0 -1.8 0.9 -3.1 2.8 -4.1 c 1.9 -1 4.4 -1.5 7.7 -1.5 c 3.4 0 6 0.5 7.8 1.5 c 1.8 1 2.7 2.3 2.7 4.1 c 0 1.3 -0.4 2.3 -1.2 3.1 c -0.8 0.8 -2 1.4 -3.5 1.9 c -1.5 0.5 -3.4 0.7 -5.7 0.7 c -2.3 0 -4.2 -0.2 -5.7 -0.6 c -1.5 -0.4 -2.7 -1 -3.7 -1.8 C 149.7 272.4 149.2 271.4 149.2 270.1 z M 155.5 270.1 c 0 1.1 0.4 1.9 1.1 2.4 c 0.8 0.5 1.8 0.7 3.1 0.7 c 1.4 0 2.4 -0.2 3.1 -0.7 c 0.7 -0.5 1.1 -1.3 1.1 -2.5 c 0 -1 -0.4 -1.8 -1.2 -2.2 c -0.8 -0.5 -1.8 -0.7 -3.1 -0.7 c -1.3 0 -2.3 0.2 -3.1 0.7 C 155.9 268.2 155.5 269 155.5 270.1 z"/>
    <path d="M 173.7 264.7 h 6.3 v 4.1 l 6.6 -4.1 h 8.4 l -7.4 4.1 l 7.8 6.7 h -7.7 l -4.3 -4.4 l -3.3 1.8 v 2.6 h -6.3 V 264.7 z"/>
    <path d="M 197.4 264.7 h 6.3 v 4.1 l 6.6 -4.1 h 8.4 l -7.4 4.1 l 7.8 6.7 h -7.7 l -4.3 -4.4 l -3.3 1.8 v 2.6 h -6.3 V 264.7 z"/>
    <path d="M 221 264.7 h 16.9 v 2.3 h -10.6 v 1.7 h 9.8 v 2.2 h -9.8 v 2.1 h 10.9 v 2.5 H 221 V 264.7 z"/>
    <path d="M 241.6 264.7 h 11.8 c 2 0 3.5 0.3 4.5 0.8 c 1.1 0.5 1.6 1.2 1.6 1.9 c 0 0.6 -0.4 1.2 -1.1 1.6 c -0.5 0.3 -1.2 0.5 -2.2 0.7 c 1.5 0.2 2.5 0.5 3.2 1 c 0.7 0.5 1 1 1 1.7 c 0 0.6 -0.2 1.1 -0.7 1.5 c -0.5 0.4 -1.2 0.8 -2 1.1 c -0.5 0.2 -1.3 0.3 -2.4 0.4 c -1.4 0.1 -2.4 0.1 -2.8 0.1 h -10.8 V 264.7 z M 247.9 268.9 h 2.7 c 1 0 1.7 -0.1 2 -0.3 c 0.4 -0.2 0.6 -0.4 0.6 -0.8 c 0 -0.3 -0.2 -0.6 -0.6 -0.7 c -0.4 -0.2 -1.1 -0.3 -2 -0.3 h -2.8 V 268.9 z M 247.9 273.2 h 3.2 c 1.1 0 1.8 -0.1 2.3 -0.3 c 0.4 -0.2 0.7 -0.5 0.7 -0.8 c 0 -0.3 -0.2 -0.6 -0.7 -0.8 c -0.4 -0.2 -1.2 -0.3 -2.3 -0.3 h -3.2 V 273.2 z"/>
    <path d="M 263.9 264.7 h 6.3 v 10.8 h -6.3 V 264.7 z"/>
    <path d="M 288.9 264.7 h 10.4 c 2.3 0 4 0.3 5.1 0.9 c 1.1 0.6 1.7 1.4 1.7 2.4 c 0 1.1 -0.6 1.9 -1.8 2.5 c -1.2 0.6 -3.1 0.9 -5.6 0.9 h -3.4 v 4 h -6.3 V 264.7 z M 295.2 269.3 h 1.5 c 1.2 0 2.1 -0.1 2.5 -0.3 c 0.5 -0.2 0.7 -0.5 0.7 -0.9 c 0 -0.3 -0.2 -0.6 -0.6 -0.9 c -0.4 -0.2 -1.2 -0.4 -2.4 -0.4 h -1.8 V 269.3 z"/>
    <path d="M 319.5 273.7 h -7.1 l -1 1.8 H 305 l 7.6 -10.8 h 6.9 l 7.6 10.8 h -6.6 L 319.5 273.7 z M 318.2 271.4 l -2.2 -3.9 l -2.2 3.9 H 318.2 z"/>
    <path d="M 329.2 275.5 v -10.8 h 10.5 c 1.9 0 3.4 0.1 4.5 0.3 c 1 0.2 1.9 0.5 2.5 1 c 0.6 0.5 0.9 1.1 0.9 1.7 c 0 0.6 -0.2 1.1 -0.7 1.5 c -0.5 0.4 -1.1 0.8 -2 1.1 c -0.5 0.2 -1.3 0.3 -2.2 0.4 c 0.7 0.1 1.3 0.3 1.6 0.4 c 0.2 0.1 0.6 0.3 1 0.6 c 0.4 0.3 0.7 0.5 0.9 0.7 l 3.1 3.1 h -7.1 l -3.4 -3.3 c -0.4 -0.4 -0.8 -0.7 -1.1 -0.8 c -0.5 -0.2 -1 -0.2 -1.5 -0.2 h -0.6 v 4.4 H 329.2 z M 335.6 269 h 2.6 c 0.3 0 0.8 0 1.7 -0.1 c 0.4 0 0.8 -0.2 1 -0.3 c 0.3 -0.2 0.4 -0.4 0.4 -0.6 c 0 -0.3 -0.2 -0.6 -0.6 -0.8 c -0.4 -0.2 -1.2 -0.3 -2.3 -0.3 h -2.7 V 269 z"/>
    <path d="M 351.3 264.7 h 6.3 v 4.1 l 6.6 -4.1 h 8.4 l -7.4 4.1 l 7.8 6.7 h -7.7 l -4.3 -4.4 l -3.3 1.8 v 2.6 h -6.3 V 264.7 z"/>
  </g>
  <polygon points="53.8,-0.2 0.2,-0.2 0.2,34.3 53.8,34.3 11,17.1"/>
</svg>